<svg width="31" height="30" viewBox="0 0 31 30" fill="none" xmlns="http://www.w3.org/2000/svg">
<path d="M30.7071 0.293011C30.5731 0.159328 30.4041 0.066378 30.2194 0.0249573C30.0348 -0.0164635 29.8422 -0.0046551 29.664 0.0590108L1.66405 10.059C1.4781 10.1241 1.31554 10.2428 1.19676 10.4C1.07799 10.5572 1.0083 10.7459 0.996442 10.9426C0.984584 11.1393 1.03109 11.3351 1.13011 11.5054C1.22914 11.6757 1.37627 11.813 1.55305 11.9L13.253 17.75L19.1031 29.45C19.1867 29.616 19.3149 29.7554 19.4734 29.8525C19.6318 29.9497 19.8142 30.0007 20 30H20.0611C20.2564 29.9879 20.444 29.9187 20.6004 29.8011C20.7568 29.6834 20.8753 29.5224 20.941 29.338L30.941 1.33801C31.0051 1.15956 31.0172 0.966572 30.9757 0.781548C30.9343 0.596525 30.8411 0.427093 30.7071 0.293011V0.293011ZM26.149 3.43701L13.8 15.783L4.54005 11.153L26.149 3.43701ZM19.8491 26.457L15.219 17.197L27.563 4.85101L19.8491 26.457Z" fill="#FBFDFD"/>
</svg>